<svg id="Layer_1" data-name="Layer 1" xmlns="http://www.w3.org/2000/svg" viewBox="0 0 411.76 441.21"><defs><style>.cls-1{fill:#fff;}</style></defs><title>family</title><path class="cls-1" d="M331.69,131.87c-85.47,4.29-170.46,3.76-255.49-.15v29.36c32.73-1.94,65.13-2.84,97.74-1.75a262.8,262.8,0,0,1-19.84,19.45c-30.73,26.86-66.78,43.41-105.8,54.06C35.17,236.42,22,239.71,8.15,243.3c9.32,8.49,17.13,17.64,20.94,30.69,23.19-10.57,45.83-20.55,68.18-31.15A348.73,348.73,0,0,0,161.39,204L181,227.41c-41,46.06-91.81,74.24-150.77,89.45,17.24,11.44,16.09,9.67,23.38,28.1,52.43-24.42,101.46-53.77,142.34-96.77,5.07,8.9,9.69,17.33,14.65,25.55,1.88,3.13,1.68,5.33-.88,7.86-11.82,11.72-22.93,24.24-35.43,35.19-38.4,33.64-81.78,58.24-132,69.67-8.47,1.93-17.08,3.25-25.48,4.82,3.85,4.64,7.93,8.84,11.13,13.64s5.68,10.43,8.66,16.06c70.11-23.62,131-62.27,185.29-112.67a219.58,219.58,0,0,1,.62,26c-.69,16.64-1.78,33.27-7.44,49.18-3.73,10.47-10.77,18.08-21.63,20.23-9.69,1.92-19.77,2.34-29.69,2.54-8.06.17-16.15-1-25.52-1.61,9.33,11.05,15.28,22.55,16.33,36.6,21.67-1.8,42.64-3.89,61.94-13.71,14.79-7.52,24.82-19.23,28.21-35.52a259.94,259.94,0,0,0,5-36.53c1.53-24.09-1.29-47.88-7.05-71.33-.32-1.29,0-3.59.88-4.19,5.44-3.74,11.11-7.13,17.33-11,25.43,61.5,70.12,104.09,127,136a52.25,52.25,0,0,1,23.86-27.36c-10.09-5-19.7-9.61-29.09-14.6-25.88-13.72-50.36-29.39-70-51.61-14-15.86-23.95-34.22-33.08-53.53,2.61-1.57,4.83-3,7.12-4.3,21.64-12.44,43.18-25.08,65-37.11,4.24-2.34,9.8-2.27,14.73-3.43,1.8-.41,4.76-.82,5-1.81.51-1.95.26-5-1-6.37C363,196.17,355,187.9,347.15,179.49,315,213.83,273.2,234.65,232.34,257.61a384.86,384.86,0,0,0-52.92-68.47c9-9.75,17.58-19.07,26.28-28.25a7.21,7.21,0,0,1,4.59-2.23c30.33,0,60.66.14,91,.47,10.07.12,20.14.94,30.42,1.44ZM19.59,64.09v4.72q0,17.75,0,35.5c0,15.83-.06,31.67.1,47.5,0,1.58,1.33,4.48,2.12,4.51,8.92.32,17.86.2,27.21.2V90H360v61.48h29.66V62.87c-3.75.31-7.06.77-10.38.82Q302,64.76,224.85,65.79c-2.81,0-4.17-1-5.26-3.42-2.5-5.45-5-10.93-7.9-16.14C203,30.89,194.17,15.68,185.15,0L158.66,16.17c12.82,15.33,24.13,31.21,33.11,50Z"/><path d="M331.69,131.87v28.7c-10.28-.5-20.35-1.32-30.42-1.44-30.32-.33-60.65-.43-91-.47a7.21,7.21,0,0,0-4.59,2.23c-8.7,9.18-17.25,18.5-26.28,28.25a384.86,384.86,0,0,1,52.92,68.47c40.86-23,82.69-43.78,114.81-78.12,7.86,8.41,15.81,16.68,23.39,25.27,1.24,1.41,1.49,4.42,1,6.37-.26,1-3.22,1.4-5,1.81-4.93,1.16-10.49,1.09-14.73,3.43-21.87,12-43.41,24.67-65,37.11-2.29,1.31-4.51,2.73-7.12,4.3,9.13,19.31,19.06,37.67,33.08,53.53,19.63,22.22,44.11,37.89,70,51.61,9.39,5,19,9.56,29.09,14.6a52.25,52.25,0,0,0-23.86,27.36c-56.9-31.89-101.59-74.48-127-136-6.22,3.9-11.89,7.29-17.33,11-.87.6-1.2,2.9-.88,4.19,5.76,23.45,8.58,47.24,7.05,71.33a259.94,259.94,0,0,1-5,36.53c-3.39,16.29-13.42,28-28.21,35.52-19.3,9.82-40.27,11.91-61.94,13.71-1.05-14-7-25.55-16.33-36.6,9.37.65,17.46,1.78,25.52,1.61,9.92-.2,20-.62,29.69-2.54,10.86-2.15,17.9-9.76,21.63-20.23,5.66-15.91,6.75-32.54,7.44-49.18a219.58,219.58,0,0,0-.62-26C167.58,358.71,106.74,397.36,36.63,421c-3-5.63-5.39-11.14-8.66-16.06s-7.28-9-11.13-13.64c8.4-1.57,17-2.89,25.48-4.82,50.2-11.43,93.58-36,132-69.67,12.5-11,23.61-23.47,35.43-35.19,2.56-2.53,2.76-4.73.88-7.86-5-8.22-9.58-16.65-14.65-25.55-40.88,43-89.91,72.35-142.34,96.77-7.29-18.43-6.14-16.66-23.38-28.1C89.2,301.65,140,273.47,181,227.41L161.39,204a348.73,348.73,0,0,1-64.12,38.88c-22.35,10.6-45,20.58-68.18,31.15-3.81-13.05-11.62-22.2-20.94-30.69,13.8-3.59,27-6.88,40.15-10.46,39-10.65,75.07-27.2,105.8-54.06a262.8,262.8,0,0,0,19.84-19.45c-32.61-1.09-65-.19-97.74,1.75V131.72C161.23,135.63,246.22,136.16,331.69,131.87Z"/><path d="M19.59,64.09l172.18,2.1c-9-18.81-20.29-34.69-33.11-50L185.15,0c9,15.68,17.89,30.89,26.54,46.23,2.93,5.21,5.4,10.69,7.9,16.14,1.09,2.4,2.45,3.47,5.26,3.42q77.19-1.12,154.39-2.1c3.32,0,6.63-.51,10.38-.82v88.59H360V90H49v66.54c-9.35,0-18.29.12-27.21-.2-.79,0-2.1-2.93-2.12-4.51-.16-15.83-.1-31.67-.1-47.5q0-17.76,0-35.5Z"/></svg>