<svg id="Layer_1" data-name="Layer 1" xmlns="http://www.w3.org/2000/svg" viewBox="0 0 382.93 409.64"><defs><style>.cls-1{fill:#fff;}</style></defs><title>prosperity</title><path class="cls-1" d="M155.92,219.62a38.71,38.71,0,0,1,4.08-3.13c5.71-3.08,11.39-6.26,17.25-9q15.15-7.2,30.54-13.93c3.25-1.43,3.41-3.81,1.88-6-2.82-4-5.61-8.53-9.51-11.3A53,53,0,0,1,185,159c-3.93-6.76-9.12-12.36-18.2-11.12-.19,0-.42-.23-1-.57q3.25-14.49,6.59-29.4c2.3-.22,4.53-.43,6.76-.62,8.32-.72,16.66-1.27,25-2.23,4-.46,4.76-2.67,2.63-6.07a11.57,11.57,0,0,0-2.74-3,26.92,26.92,0,0,0-17.89-5.24c-3.28.15-6.55.54-10.74.9,2.3-6.09,4-11.56,6.42-16.72,3.21-6.87,3.37-11-1.92-16.37a106.42,106.42,0,0,0-14.79-11.92c-1.55-1.09-4.26-1.16-6.29-.83A75.36,75.36,0,0,0,148,58.62a185.89,185.89,0,0,1-70.81,8.49,11.74,11.74,0,0,0-4.74.82c-2.41.92-2.78,2.75-2,5.19,1.89,5.88,4.39,11.72,5.15,17.77,1,7.81,2.13,15.82.11,23.81-2.41.24-4.64.44-6.86.69-12.51,1.38-25,2.79-37.55,4.15-7.06.76-14.14,1.34-21.18,2.24-1.55.2-3.94,1.15-4.21,2.2-.32,1.24.88,3.41,2.07,4.38a59.35,59.35,0,0,0,9,5.94c10.67,5.78,21.7,4,32.82,1.49,6.88-1.54,13.86-2.61,21.6-4-3.65,8.59-7,16.27-13.61,22.06-1.08,1-2.49,2.27-2.57,3.49-.32,5.2-.77,10.49,2.09,15.32,2.52,4.26,4.21,4.55,7.73,1,5.1-5.13,11.52-8.09,18.28-9.71A122.25,122.25,0,0,1,119,160.82c7.88.47,15.73,1.54,24,2.38-1.88,5-3.33,9.46-5.27,13.75-2.32,5.11-2.81,5.15-8.39,4.43-5.25-.67-10.51-1.21-16.75-1.92,1,1.93,1.54,3.11,2.27,4.14,4.81,6.84,9.72,13.61,14.49,20.49,3,4.4,6.56,5.27,10.19,1.33a79.31,79.31,0,0,0,11.2-14.84c3.77-6.81,6.41-14.23,9.77-21.93l17.78,9.93c-.76,1.4-1.2,2.27-1.71,3.11-6,10-14.87,17.09-24,23.85A73.31,73.31,0,0,1,128,217.09c-6.42,1.74-7.25,3.36-5.45,9.7a47.42,47.42,0,0,0,3.1,8c3.13,6.3,5.47,7.33,12.32,5.79,14.11-3.18,28.22-.48,42.94-.46a10.44,10.44,0,0,1-1.22,1.33c-24.52,14.86-48.81,30.19-76.91,37.82-4.43,1.2-5.14,3-2.5,6.79a192.3,192.3,0,0,0,12.81,16.56c5.52,6.25,8.23,6.52,15.8,3.1a21.88,21.88,0,0,1,3.83-1.5c17.07-4,34.15-7.9,51.37-11.86,3.94,9.43,4.78,18.65,5.08,27.8.45,13.73.23,27.48,0,41.22a58.71,58.71,0,0,1-1.63,11.06c-.57,2.77-2.3,4.33-5.44,3.7-3.65-.72-7.35-1.23-11-2-3.89-.8-7.74-1.86-11.65-2.58a3.24,3.24,0,0,0-2.8,1c-.33.65.31,2,.86,2.85a14.81,14.81,0,0,0,2.37,2.38c7,6.73,14.15,13.32,20.93,20.27,3.2,3.28,5.54,7.38,8.52,10.9,2.81,3.33,5.86,3.38,9.07.46a22.24,22.24,0,0,0,3.27-3.59,56.12,56.12,0,0,0,10.88-34c-.16-12.62,0-25.24-.06-37.87,0-9.26.72-18.43,3.46-27.35,1.84-6,.15-10.75-4.89-14.4-1.43-1-2.78-2.19-4.53-3.58,16.92-3.2,33.21-6,49.37-9.48,5.37-1.15,8.15.58,11.54,4.48a93.35,93.35,0,0,0,16.67,15.36c6.5,4.55,15.94,1.68,16.39-7.84a48.58,48.58,0,0,0-.34-10.79c-1.47-8.33-4.55-16.06-12.47-20.3a175.82,175.82,0,0,0-22-10.22,116.24,116.24,0,0,0-20.15-5c-3.7-.64-5.09,2.28-3,5.54,1.76,2.72,3.8,5.26,5.66,7.92,2.67,3.8,5.28,7.63,8.07,11.68-14,.85-27.28,1.72-40.62,2.47s-26.68,1.45-40,2q-15.73.71-31.47,1.05c-1.52,0-3.07-.87-4.61-1.34l.19-1.19c1-.49,1.89-1,2.88-1.48,24.37-10.89,48.68-21.93,73.16-32.6,14.48-6.32,29.22-12.08,43.87-18,3.58-1.46,4.45-2.83,2.79-7-3.82-9.74-11-16.58-20.11-21.28a7.41,7.41,0,0,0-9.89,3.17c-2.31,4.31-4.42,9.21-8,12.28-9.53,8.21-19.74,15.63-29.81,23.2-.94.7-2.88.63-4.14.24-6.9-2.15-13.74-4.48-20.57-6.82C165.58,223.18,161.23,221.54,155.92,219.62ZM302.06,65.09a3.86,3.86,0,0,1,.59-.27c10.31-1.74,20.67-3.21,30.89-5.35a50.83,50.83,0,0,0,13.15-5.06c3.76-2,4.61-5.73,2.09-8-6.95-6.39-15.2-10.5-24.73-8.25-15,3.55-29.77,8.06-44.67,12.06-10.86,2.91-21.76,5.65-32.85,8.52,4.29-6.05,8.34-11.87,12.51-17.61,4-5.53,7.92-11.21,12.37-16.39s4.53-10-1.23-14.24C263.6,5.63,255.8,3.67,248,2.1c-3.52-.71-4.5.72-4.78,4.35-.34,4.33-.44,8.8-1.69,12.9-6.91,22.72-18,43.5-30.53,63.53-.75,1.2-.71,2.88-1,4.33a34.24,34.24,0,0,0,5.25.16c.88-.09,1.64-1.06,2.51-1.55,8.07-4.57,14-11.59,20.46-18a5.13,5.13,0,0,1,3.73-1.12c5.92.71,11.78,2,17.71,2.46s11.63.09,17.44.08c7.75,19.47.21,43.79-9.68,55.23-8.25-4.88-16.25-9.93-24.58-14.4-4.75-2.54-10.14-3.92-15.5-1.79a7.12,7.12,0,0,0-3.46,4.12c-.73,2.33,1.38,3,3.27,3.63,11.78,4.16,21.08,12,30.33,20.47-1.38,1.29-2.51,2.43-3.72,3.46a150.12,150.12,0,0,1-50.8,28c-1.23.41-2.15,1.73-3.21,2.62,1.32.68,2.62,1.44,4,2a3.65,3.65,0,0,0,1.86,0c9.57-1.51,19.29-2.39,28.66-4.72a90.18,90.18,0,0,0,36.57-18.53c2.16,2.24,4.07,4.39,6.14,6.36,14.18,13.52,28.16,27.26,42.71,40.38,6,5.41,14,7.27,22.09,6.11,8.72-1.26,17.4-2.95,26-4.88a152.64,152.64,0,0,0,17.49-5.21c1.46-.51,2.39-2.51,3.56-3.82-1.21-1.09-2.39-2.22-3.67-3.22a6,6,0,0,0-1.77-.58c-7.46-2.42-14.95-4.78-22.38-7.28-20.58-6.92-41.13-13.9-59.08-26.65-6.27-4.46-12.65-8.76-18.94-13.12a10.63,10.63,0,0,1,.73-1.47,141.28,141.28,0,0,0,21.79-42.41c1.37-4.25,2.07-8.77,3.83-12.83,2.72-6.24,2.73-7.6-2.44-12.07C305.43,67.49,303.88,66.46,302.06,65.09Zm-199-33.62-.36-.91c1.94-1.53,3.83-3.12,5.82-4.57,5.71-4.16,6-8.89.42-13.34C102.42,7.41,94.52,5.48,86.53,4c-3.43-.65-4.8,1.12-5.22,4.56a45.09,45.09,0,0,1-2.76,12.24,79.64,79.64,0,0,1-7.93,14A294.6,294.6,0,0,1,31.9,80.26a12,12,0,0,0-1.67,3,14.55,14.55,0,0,0,3.62,1.4,6.48,6.48,0,0,0,3.23-.83c3.82-1.82,7.8-3.42,11.34-5.69A218,218,0,0,0,87.5,46.89a5.1,5.1,0,0,1,4.8-1.73c5.7.59,11.49,1.26,17.16.83,11.17-.87,22.35-2,33.39-3.86,14.22-2.35,28.33-5.38,42.43-8.37,1.76-.37,4.39-2.2,4.49-3.51a6.8,6.8,0,0,0-3-5.38,100.68,100.68,0,0,0-15.75-6.61c-2.26-.72-5.2-.3-7.56.45C143.76,25,123.37,28,103.06,31.47ZM321.13,371.71c-1.39-5.51-2.35-11.18-4.27-16.51-2.86-7.92-9.19-13.23-15.58-18.27a140.93,140.93,0,0,0-46.77-24.45c-2.49-.75-6.83-1.17-7.85.15-2.38,3.08.63,6.13,2.83,8.39,12.42,12.84,21.79,27.9,31.49,42.73,6.08,9.31,12.22,18.54,21.07,25.6,5.59,4.47,12.85,3.24,15.32-3.27C319.07,381.58,319.85,376.74,321.13,371.71ZM73,394.32l.45,1.33c2.81-.26,5.78,0,8.39-.87a97.85,97.85,0,0,0,42.93-28.17c7-7.88,13.37-16.38,19.84-24.75a6,6,0,0,0,.55-4.48c-2.33-9.28-16.9-18.56-26.43-16.81a4.18,4.18,0,0,0-2.83,2.68c-1.1,9.15-5.42,17.06-9.69,24.9a226.87,226.87,0,0,1-31.31,43.64A31.5,31.5,0,0,0,73,394.32Z" transform="translate(-5.83 -1.92)"/><path d="M155.92,219.62c5.31,1.92,9.66,3.56,14.06,5.07,6.83,2.34,13.67,4.67,20.57,6.82,1.26.39,3.2.46,4.14-.24,10.07-7.57,20.28-15,29.81-23.2,3.56-3.07,5.67-8,8-12.28a7.41,7.41,0,0,1,9.89-3.17c9.14,4.7,16.29,11.54,20.11,21.28,1.66,4.21.79,5.58-2.79,7-14.65,5.94-29.39,11.7-43.87,18-24.48,10.67-48.79,21.71-73.16,32.6-1,.44-1.92,1-2.88,1.48l-.19,1.19c1.54.47,3.09,1.38,4.61,1.34q15.74-.35,31.47-1.05,20-.88,40-2c13.34-.75,26.66-1.62,40.62-2.47-2.79-4.05-5.4-7.88-8.07-11.68-1.86-2.66-3.9-5.2-5.66-7.92-2.12-3.26-.73-6.18,3-5.54a116.24,116.24,0,0,1,20.15,5,175.82,175.82,0,0,1,22,10.22c7.92,4.24,11,12,12.47,20.3a48.58,48.58,0,0,1,.34,10.79c-.45,9.52-9.89,12.39-16.39,7.84a93.35,93.35,0,0,1-16.67-15.36c-3.39-3.9-6.17-5.63-11.54-4.48-16.16,3.46-32.45,6.28-49.37,9.48,1.75,1.39,3.1,2.54,4.53,3.58,5,3.65,6.73,8.4,4.89,14.4-2.74,8.92-3.47,18.09-3.46,27.35,0,12.63-.1,25.25.06,37.87a56.12,56.12,0,0,1-10.88,34,22.24,22.24,0,0,1-3.27,3.59c-3.21,2.92-6.26,2.87-9.07-.46-3-3.52-5.32-7.62-8.52-10.9-6.78-6.95-13.93-13.54-20.93-20.27a14.81,14.81,0,0,1-2.37-2.38c-.55-.83-1.19-2.2-.86-2.85a3.24,3.24,0,0,1,2.8-1c3.91.72,7.76,1.78,11.65,2.58,3.65.74,7.35,1.25,11,2,3.14.63,4.87-.93,5.44-3.7a58.71,58.71,0,0,0,1.63-11.06c.19-13.74.41-27.49,0-41.22-.3-9.15-1.14-18.37-5.08-27.8-17.22,4-34.3,7.89-51.37,11.86a21.88,21.88,0,0,0-3.83,1.5c-7.57,3.42-10.28,3.15-15.8-3.1A192.3,192.3,0,0,1,100.24,286c-2.64-3.75-1.93-5.59,2.5-6.79,28.1-7.63,52.39-23,76.91-37.82a10.44,10.44,0,0,0,1.22-1.33c-14.72,0-28.83-2.72-42.94.46-6.85,1.54-9.19.51-12.32-5.79a47.42,47.42,0,0,1-3.1-8c-1.8-6.34-1-8,5.45-9.7a73.31,73.31,0,0,0,24.57-11.55c9.17-6.76,18-13.87,24-23.85.51-.84,1-1.71,1.71-3.11l-17.78-9.93c-3.36,7.7-6,15.12-9.77,21.93a79.31,79.31,0,0,1-11.2,14.84c-3.63,3.94-7.14,3.07-10.19-1.33-4.77-6.88-9.68-13.65-14.49-20.49-.73-1-1.22-2.21-2.27-4.14,6.24.71,11.5,1.25,16.75,1.92,5.58.72,6.07.68,8.39-4.43,1.94-4.29,3.39-8.79,5.27-13.75-8.29-.84-16.14-1.91-24-2.38a122.25,122.25,0,0,0-35.68,3.09c-6.76,1.62-13.18,4.58-18.28,9.71-3.52,3.55-5.21,3.26-7.73-1-2.86-4.83-2.41-10.12-2.09-15.32.08-1.22,1.49-2.53,2.57-3.49,6.58-5.79,10-13.47,13.61-22.06-7.74,1.43-14.72,2.5-21.6,4-11.12,2.5-22.15,4.29-32.82-1.49a59.35,59.35,0,0,1-9-5.94c-1.19-1-2.39-3.14-2.07-4.38.27-1,2.66-2,4.21-2.2,7-.9,14.12-1.48,21.18-2.24,12.52-1.36,25-2.77,37.55-4.15,2.22-.25,4.45-.45,6.86-.69,2-8,.86-16-.11-23.81-.76-6-3.26-11.89-5.15-17.77-.78-2.44-.41-4.27,2-5.19a11.74,11.74,0,0,1,4.74-.82A185.89,185.89,0,0,0,148,58.62a75.36,75.36,0,0,1,10.79-2.89c2-.33,4.74-.26,6.29.83a106.42,106.42,0,0,1,14.79,11.92c5.29,5.36,5.13,9.5,1.92,16.37-2.4,5.16-4.12,10.63-6.42,16.72,4.19-.36,7.46-.75,10.74-.9A26.92,26.92,0,0,1,204,105.91a11.57,11.57,0,0,1,2.74,3c2.13,3.4,1.34,5.61-2.63,6.07-8.29,1-16.63,1.51-25,2.23-2.23.19-4.46.4-6.76.62q-3.35,14.93-6.59,29.4c.55.34.78.6,1,.57,9.08-1.24,14.27,4.36,18.2,11.12a53,53,0,0,0,15.21,17.26c3.9,2.77,6.69,7.26,9.51,11.3,1.53,2.18,1.37,4.56-1.88,6q-15.37,6.75-30.54,13.93c-5.86,2.78-11.54,6-17.25,9A38.71,38.71,0,0,0,155.92,219.62ZM93.46,112.46l61.16-7.95c.57-6.61,1.18-12.68,1.59-18.76.88-12.87-3-13.94-14.37-12.26C133,74.81,124.3,77,115.49,78.56c-5.84,1-11.76,1.59-17.44,2.33C96.54,91.3,95.05,101.51,93.46,112.46Zm27.26,34c-3.58-3.53-8.33-6.75-11.08-11.21-4.79-7.76-10.81-9.67-18.91-6.67a5.55,5.55,0,0,0-3,2.45c-2,4.67-3.78,9.47-5.65,14.21-1.32,3.37-.74,4.46,2.82,4.25,4.83-.3,9.64-1.06,14.47-1.46C106.73,147.39,114.12,146.92,120.72,146.44Zm-1.9-22.27-.22.55c3.08.78,6.22,1.41,9.23,2.41,2.75.91,5.35,2.28,5.89,5.59,1,6.29-1.87,11.34-8.68,13.88h22.22c1.68-8.78,3.34-17.47,5.13-26.79Z" transform="translate(-5.83 -1.92)"/><path d="M302.06,65.09c1.82,1.37,3.37,2.4,4.77,3.62,5.17,4.47,5.16,5.83,2.44,12.07-1.76,4.06-2.46,8.58-3.83,12.83A141.28,141.28,0,0,1,283.65,136a10.63,10.63,0,0,0-.73,1.47c6.29,4.36,12.67,8.66,18.94,13.12,17.95,12.75,38.5,19.73,59.08,26.65,7.43,2.5,14.92,4.86,22.38,7.28a6,6,0,0,1,1.77.58c1.28,1,2.46,2.13,3.67,3.22-1.17,1.31-2.1,3.31-3.56,3.82a152.64,152.64,0,0,1-17.49,5.21c-8.61,1.93-17.29,3.62-26,4.88-8.11,1.16-16.08-.7-22.09-6.11-14.55-13.12-28.53-26.86-42.71-40.38-2.07-2-4-4.12-6.14-6.36a90.18,90.18,0,0,1-36.57,18.53c-9.37,2.33-19.09,3.21-28.66,4.72a3.65,3.65,0,0,1-1.86,0c-1.37-.57-2.67-1.33-4-2,1.06-.89,2-2.21,3.21-2.62a150.12,150.12,0,0,0,50.8-28c1.21-1,2.34-2.17,3.72-3.46-9.25-8.49-18.55-16.31-30.33-20.47-1.89-.67-4-1.3-3.27-3.63a7.12,7.12,0,0,1,3.46-4.12c5.36-2.13,10.75-.75,15.5,1.79,8.33,4.47,16.33,9.52,24.58,14.4,9.89-11.44,17.43-35.76,9.68-55.22-5.81,0-11.66.35-17.44-.09s-11.79-1.75-17.71-2.46a5.13,5.13,0,0,0-3.73,1.12c-6.49,6.37-12.39,13.39-20.46,18-.87.49-1.63,1.46-2.51,1.55a34.24,34.24,0,0,1-5.25-.16c.33-1.45.29-3.13,1-4.33,12.57-20,23.62-40.81,30.53-63.53,1.25-4.1,1.35-8.57,1.69-12.9.28-3.63,1.26-5.06,4.78-4.35,7.83,1.57,15.63,3.53,22.21,8.36,5.76,4.23,5.79,8.94,1.23,14.24S263.07,35.56,259,41.09c-4.17,5.74-8.22,11.56-12.51,17.61,11.09-2.87,22-5.61,32.85-8.52,14.9-4,29.67-8.51,44.67-12.06,9.53-2.25,17.78,1.86,24.73,8.25,2.52,2.31,1.67,6.05-2.09,8a50.83,50.83,0,0,1-13.15,5.06c-10.22,2.14-20.58,3.61-30.89,5.35A3.86,3.86,0,0,0,302.06,65.09Z" transform="translate(-5.83 -1.92)"/><path d="M103.06,31.47C123.37,28,143.76,25,163.51,18.71c2.36-.75,5.3-1.17,7.56-.45a100.68,100.68,0,0,1,15.75,6.61,6.8,6.8,0,0,1,3,5.38c-.1,1.31-2.73,3.14-4.49,3.51-14.1,3-28.21,6-42.43,8.37-11,1.83-22.22,3-33.39,3.86-5.67.43-11.46-.24-17.16-.83a5.1,5.1,0,0,0-4.8,1.73A218,218,0,0,1,48.42,78.15C44.88,80.42,40.9,82,37.08,83.84a6.48,6.48,0,0,1-3.23.83,14.55,14.55,0,0,1-3.62-1.4,12,12,0,0,1,1.67-3A294.6,294.6,0,0,0,70.62,34.73a79.64,79.64,0,0,0,7.93-14A45.09,45.09,0,0,0,81.31,8.53C81.73,5.09,83.1,3.32,86.53,4c8,1.51,15.89,3.44,22.41,8.68,5.55,4.45,5.29,9.18-.42,13.34-2,1.45-3.88,3-5.82,4.57Z" transform="translate(-5.83 -1.92)"/><path d="M321.13,371.71c-1.28,5-2.06,9.87-3.76,14.37-2.47,6.51-9.73,7.74-15.32,3.27-8.85-7.06-15-16.29-21.07-25.6-9.7-14.83-19.07-29.89-31.49-42.73-2.2-2.26-5.21-5.31-2.83-8.39,1-1.32,5.36-.9,7.85-.15a140.93,140.93,0,0,1,46.77,24.45c6.39,5,12.72,10.35,15.58,18.27C318.78,360.53,319.74,366.2,321.13,371.71Z" transform="translate(-5.83 -1.92)"/><path d="M73,394.32a31.5,31.5,0,0,1,1.9-2.53,226.87,226.87,0,0,0,31.31-43.64c4.27-7.84,8.59-15.75,9.69-24.9a4.18,4.18,0,0,1,2.83-2.68c9.53-1.75,24.1,7.53,26.43,16.81a6,6,0,0,1-.55,4.48c-6.47,8.37-12.81,16.87-19.84,24.75a97.85,97.85,0,0,1-42.93,28.17c-2.61.86-5.58.61-8.39.87Z" transform="translate(-5.83 -1.92)"/><path class="cls-1" d="M93.46,112.46c1.59-10.95,3.08-21.16,4.59-31.57,5.68-.74,11.6-1.31,17.44-2.33C124.3,77,133,74.81,141.84,73.49c11.34-1.68,15.25-.61,14.37,12.26-.41,6.08-1,12.15-1.59,18.76Zm35.75-8c7.51-.89,12.78-8.09,10.74-15.1-.34-1.14-1.54-2.67-2.56-2.86-7.55-1.38-15.13-2.73-22.75-3.52-3.06-.32-4.37,2.69-2.44,5.12,3.64,4.57,7.39,9.07,11.4,13.3C125,102.91,127.31,103.5,129.21,104.5Z" transform="translate(-5.83 -1.92)"/><path class="cls-1" d="M120.72,146.44c-6.6.48-14,.95-21.37,1.57-4.83.4-9.64,1.16-14.47,1.46-3.56.21-4.14-.88-2.82-4.25,1.87-4.74,3.6-9.54,5.65-14.21a5.55,5.55,0,0,1,3-2.45c8.1-3,14.12-1.09,18.91,6.67C112.39,139.69,117.14,142.91,120.72,146.44Z" transform="translate(-5.83 -1.92)"/><path class="cls-1" d="M118.82,124.17l33.57-4.36c-1.79,9.32-3.45,18-5.13,26.79H125c6.81-2.54,9.7-7.59,8.68-13.88-.54-3.31-3.14-4.68-5.89-5.59-3-1-6.15-1.63-9.23-2.41Z" transform="translate(-5.83 -1.92)"/><path d="M129.21,104.5c-1.9-1-4.21-1.59-5.61-3.06-4-4.23-7.76-8.73-11.4-13.3-1.93-2.43-.62-5.44,2.44-5.12,7.62.79,15.2,2.14,22.75,3.52,1,.19,2.22,1.72,2.56,2.86C142,96.41,136.72,103.61,129.21,104.5Z" transform="translate(-5.83 -1.92)"/></svg>